<svg aria-hidden="true" style="position: absolute; width: 0; height: 0; overflow: hidden;" version="1.1" xmlns="http://www.w3.org/2000/svg" xmlns:xlink="http://www.w3.org/1999/xlink">
<defs>
<symbol id="icon-line1" viewBox="0 0 176 32">
<path d="M51.53 18.352c0.169-0.035 0.366 0.131 0.439 0.37l0.046-0.004c0.332-0.026 0.245 0.205 0.35 0.312 0.33 0.335 0.681 0.656 1.003 0.995 0.092 0.097 0.106 0.239 0.172 0.356 0.052 0.094 0.103 0.222 0.199 0.26l0.817 0.316c0.455 0.658 0.944 1.365 1.085 1.568s0.945 0.498 1.032 0.637c0.088 0.14 0.455 0.605 0.581 0.747s0.578 0.609 0.68 0.752c0.101 0.144 0.673 0.473 0.785 0.566s0.35 0.456 0.125 0.441c-0.227-0.014-0.769-0.182-1.085-0.222s-1.021-0.6-1.218-0.656c-0.198-0.056-1.12-0.366-1.62-0.565l-0.885-0.338c-0.429-0.259-1.362-0.79-2.076-1.179-0.712-0.391-3.374-1.695-4.227-2.153l-0.768-0.43c-0.717-0.402-1.422-0.815-2.141-1.215l-0.449-0.25c-0.473-0.296-1.327-0.779-1.9-1.073s-2.436-1.43-3-1.737c-0.563-0.307-2.581-1.616-3.343-2.090l-1.453-0.737c-0.721-0.467-1.796-1.135-2.39-1.483s-2.23-1.375-2.328-1.497c-0.098-0.122-0.839-0.322-1.061-0.526l-0.677-0.19c-0.303-0.222-0.68-0.478-0.839-0.569s-0.837-0.434-1.142-0.575l-0.262-0.145-0.294-0.164c-0.313-0.194-1.052-0.599-1.644-0.902s-2.467-1.198-2.81-1.371-1.533-0.738-1.869-0.887l-0.578-0.27c-0.328-0.096-0.664-0.267-0.746-0.384-0.083-0.115-0.835-0.177-1.134-0.233l-0.274-0.067-0.301-0.075c-0.331-0.078-0.72-0.159-0.867-0.177-0.146-0.020-0.575-0.162-0.65-0.21l-0.005 0.003c-0.214 0.182-0.416 0.208-0.712 0.082-0.158-0.068-0.394-0.035-0.6-0.086-0.217-0.055-0.472-0.013-0.71-0.013h-0.273c-0.299-0.003-0.758 0.029-1.019 0.072s-1.226 0.446-1.649 0.661l-0.060 0.458-0.026 0.2c-0.303 0.205-0.501 0.386-0.441 0.402s0.153 0.263 0.035 0.5l-0.385 0.25c-0.159 0.162-0.305 0.303-0.325 0.315s-0.125 0.203-0.239 0.409c-0.115 0.207-0.686 1.258-0.994 1.891l-0.059 0.638-0.088 0.956c0.442 0.943 0.833 1.732 0.867 1.752l0.005 0.023 0.054 0.204c0.051 0.226 0.19 0.55 0.307 0.72l0.13 0.145c0.147 0.165 0.266 0.352 0.367 0.54l0.207 0.384c0.313 0.381 0.672 0.93 0.799 1.218l0.156 0.249 0.332 0.529c0.397 0.569 0.809 1.213 0.917 1.431s0.282 0.825 0.128 0.785l-0.12-0.055-0.636-0.29c-0.694-0.327-1.74-0.837-2.325-1.133s-2.356-1.241-2.71-1.35l-0.316-0.114-0.031-0.011c0.029-0.141-0.202-0.373-0.513-0.514s-1.334-0.584-1.532-0.663l-0.087 0.046-0.541 0.291c-0.096-0.369-0.336-0.635-0.533-0.59s-0.851-0.039-1.022-0.147c-0.17-0.109-0.572 0.198-0.343 0.436s1.179 0.418 0.917 0.553l-0.151 0.066c-0.164 0.073-0.329 0.094-0.353-0.111l-0.024-0.207c-0.174 0.032-0.72 0.38-1.21 0.775l0.537 0.417c0.24 0.187 0.2 0.296 0.105 0.513l-0.058 0.131c0.156 0.251 0.326 0.384 0.378 0.294s0.338-0.251 0.536-0.185l0.154 0.085 0.088 0.047c0.057 0.097 0.004 0.212-0.118 0.257l-0.108 0.045-0.029 0.011c-0.051 0.047 0.128 0.401 0.396 0.788l0.358 0.431c0.188 0.038 0.484 0.097 0.658 0.132l-0.032 0.177c-0.042 0.227 0.091 0.288 0.346 0.273 0.085-0.005 0.257 0.060 0.254 0.074-0.123 0.569 0.626 0.424 0.835 0.695l0.072 0.093c0.085 0.105 0.287 0.263 0.449 0.349l0.147 0.078c0.188 0.099 0.387 0.186 0.563 0.297l0.358 0.222c0.426 0.199 0.973 0.473 1.214 0.609s0.977 0.533 1.263 0.477l0.167 0.28c0.113 0.188 0.359 0.331 0.567 0.472 0.117 0.080 0.286 0.173 0.419 0.161l0.311-0.026c0.214 0.141 1.070 0.539 1.903 0.882l1.2-0.058c0.382 0.024 0.893 0.047 1.137 0.049s1.236 0.031 1.666 0.078l0.354-0.209c0.017-0.008 0.135 0.163 0.284 0.031l0.276-0.245c0.322-0.254 0.649-0.504 0.726-0.554l-0.010-0.027c-0.211-0.606 0.507-0.937 0.661-1.449l0.113-0.373c0.45-0.344 0.846-0.76 0.879-0.923l0.057-0.104 0.344-0.628c-0.305-0.616-1.003-1.744-1.551-2.506l-0.093-0.825c-0.002-0.021-0.068-0.041-0.066-0.059l0.021-0.296c-0.208-0.252-0.562-0.716-0.787-1.031l-0.18-0.296c-0.168-0.275-0.289-0.569-0.458-0.842l-0.171-0.276c-0.215-0.293-0.469-0.668-0.563-0.835-0.094-0.165-0.494-0.852-0.675-1.158l-0.184-0.268c-0.106-0.156-0.386-0.404-0.362-0.423 0.288-0.227-0.082-0.362-0.107-0.533l-0.024-0.166c-0.19-0.205-0.199-0.356-0.019-0.335l0.117 0.051 0.487 0.208c0.476 0.303 1.037 0.657 1.249 0.787s1.207 0.444 1.243 0.452c0.035 0.007 0.236 0.124 0.431 0.224 0.196 0.102 0.902 0.543 1.21 0.709s1.352 0.704 1.648 0.813c0.296 0.11 0.91 0.639 0.939 0.66s0.26 0.094 0.445 0.164 0.8 0.407 0.991 0.477c0.19 0.070 0.674 0.421 0.75 0.482 0.077 0.061 0.446 0.146 0.53 0.211l0.081 0.061c0.137 0.103 0.284 0.199 0.412 0.31 0.285 0.242 0.795 0.22 1.004 0.502l0.254 0.344c0.436 0.173 0.946 0.402 1.134 0.511 0.189 0.108 0.875 0.431 1.114 0.47l0.014 0.269 0.005 0.082c0.256 0.073 0.593 0.163 0.749 0.199s0.697 0.378 0.958 0.533c0.261 0.155 1.303 0.82 1.781 1.1s2.125 1.268 2.611 1.565c0.485 0.296 2.184 1.313 2.689 1.609s2.151 1.296 2.544 1.555l0.365 0.225 0.014 0.009c0.106-0.088 0.345-0.036 0.532 0.116s0.758 0.475 0.912 0.427l0.045 0.033c0.301 0.217 0.44 0.523 0.834 0.725 0.352 0.181 0.742 0.305 1.087 0.493l0.321 0.174c0.35 0.196 0.999 0.547 1.443 0.78 0.444 0.234 1.837 0.926 2.066 1.107 0.23 0.182 1.199 0.609 1.481 0.718s1.154 0.509 1.327 0.619l0.133 0.119c0.146 0.131 0.297 0.216 0.526 0.176l0.28-0.048c0.094 0.18 0.214 0.315 0.268 0.297s0.239 0.058 0.296 0.208l0.040-0.002c0.366-0.021 0.507 0.328 0.721 0.344 0.293 0.021 0.57 0.22 0.878 0.089l0.029-0.013c0.024-0.025 0.178 0.054 0.341 0.176s0.932 0.367 1.149 0.453c0.217 0.085 0.94 0.364 1.121 0.425s0.92 0.061 1.185 0.056l0.099 0.288c0.037 0.109 0.37 0.172 0.581 0.215 0.652 0.133 1.281 0.344 1.974 0.347 0.266 0.001 0.484 0.291 0.811 0.106 0.318-0.179 0.471 0.16 0.708 0.168l0.27 0.010c0.297-0.076 0.819-0.159 1.162-0.183s1.384-0.051 1.559 0.020l0.074-0.239c0.014-0.046 0.307 0.009 0.504-0.038l0.809-0.19c0.442-0.563 0.812-1.067 0.823-1.118l-0.026-0.019c-0.375-0.271-0.032-0.503 0.091-0.717 0.175-0.304 0.316-0.615 0.471-0.923l0.227-0.448c0.387-0.447 0.831-1.035 0.988-1.308l-0.177-0.31c-0.159-0.276-0.202-0.596-0.297-0.897-0.023-0.075-0.025-0.169-0.082-0.22l-0.666-0.583c-0.427-0.784-1.052-1.797-1.387-2.25l-0.912-0.698c-0.501-0.447-0.945-0.825-0.985-0.84l-0.005-0.019-0.168-0.745c-0.739-0.495-1.451-1.016-1.583-1.156-0.131-0.142-0.851-0.7-1.224-0.979l-0.168-0.449c-0.054-0.071-0.267-0.272-0.471-0.448s-1.078-0.927-1.463-1.302c-0.384-0.375-1.644-1.561-1.908-1.842s-1.201-1.235-1.438-1.534c-0.235-0.3-1.016-1.211-1.2-1.362l-0.165-0.139c-0.297-0.251-0.584-0.498-0.818-0.801l-0.165-0.214c-0.285-0.211-0.587-0.458-0.67-0.547l-0.047-0.095-0.177-0.357c-0.422-0.353-0.779-0.678-0.793-0.723l0.019-0.031 0.026-0.046c0.067-0.052-0.059-0.296-0.279-0.541s-0.972-0.963-1.162-1.059-0.146-0.631-0.202-0.7l-0.055-0.065-0.546-0.639c-0.387-0.789-0.707-1.508-0.711-1.595s0.099-0.375 0.227-0.332c0.128 0.042 0.581 0.059 0.766 0.043l0.194 0.073 0.399 0.149c0.465 0.128 1.217 0.342 1.672 0.475l0.392 0.152c0.266 0.105 0.529 0.169 0.793 0.254l0.379 0.122c0.19-0.151 0.422-0.214 0.516-0.14 0.095 0.073 0.32 0.287 0.293 0.312s-0.075 0.171 0.080 0.156c0.156-0.017 0.59-0.060 0.605-0.061l0.008 0.041 0.031 0.169c0.146 0.134 0.415 0.314 0.596 0.4 0.18 0.088 1.189 0.388 1.734 0.687l0.122 0.044c0.094 0.034 0.264-0.057 0.348-0.017 0.086 0.038 0.091 0.182 0.169 0.251 0.027 0.023 0.21-0.019 0.251-0.069l0.106-0.127c0.089-0.171 0.282-0.248 0.429-0.17 0.146 0.079 0.503 0.289 0.494 0.31s-0.148 0.057-0.29 0.037c-0.141-0.019-0.471 0.023-0.421 0.134 0.052 0.112 0.668 0.216 1.022 0.215l0.138 0.365c0.052 0.14 0.511 0.331 0.578 0.289l0.374-0.244c0.178 0.223 0.552 0.496 0.83 0.606l0.005 0.106 0.014 0.408c0.275-0.139 0.621-0.146 0.769-0.015l0.14 0.113c0.193 0.152 0.553 0.165 0.737 0.32 0.147 0.125 0.447-0.356 0.428 0.104-0.003 0.084 0.33 0.155 0.374 0.267l0.119 0.297c0.262-0.063 0.566-0.045 0.674 0.039s0.471 0.237 0.563 0.152c0.092-0.085 0.505 0.325 0.779 0.504 0.273 0.179 1.007 0.656 1.062 0.631s0.285-0.029 0.275 0.107l0.023 0.097 0.016 0.066c0.066 0.064 0.22 0.016 0.343-0.109s0.47 0.348 0.703 0.385l-0.009 0.277c-0.006 0.173 0.333-0.322 0.406 0.115l0.053 0.313c0.257-0.198 0.528-0.36 0.6-0.362s0.331 0.089 0.282 0.201c-0.048 0.112-0.013 0.403 0.18 0.408 0.194 0.006 0.629 0.547 0.935 0.748s1.349 0.482 1.33 0.667l0.085 0.053 0.276 0.167c0.345 0.122 0.789 0.341 0.987 0.488s0.929 0.211 0.975 0.323l-0.028 0.015-0.273 0.149c0.175 0.113 0.517 0.279 0.76 0.368s0.848 0.455 0.948 0.42l0.099-0.007 0.159-0.014c0.191 0.054 0.291 0.118 0.225 0.142-0.067 0.023-0.154 0.109-0.014 0.128 0.14 0.020 0.559 0.085 0.606 0.315 0.045 0.23 0.727 0.498 0.754 0.444l0.015-0.069 0.017-0.079c-0.002-0.036 0.062-0.014 0.142 0.051s0.322 0.263 0.323 0.263c0 0 0.048 0.144 0.184 0.251s0.604 0.433 0.764 0.472c0.159 0.039 0.34 0.433 0.414 0.491s0.621 0.234 0.894 0.388l0.256 0.010c0.335 0.012 0.304 0.319 0.328 0.306l0.612-0.344c0.137 0.419 0.546 0.945 0.907 1.17l0.352 0.192c0.248 0.134 0.444 0.47 0.867 0.205 0.050-0.032 0.298 0.087 0.398 0.178 0.356 0.324 0.779 0.558 1.281 0.701l0.047 0.014c0.156-0.16 0.321-0.173 0.367-0.029s0.599 0.493 0.813 0.602l0.243-0.143 0.010-0.006c0.076 0.066 0.073 0.245-0.004 0.397l0.219-0.082c0.292-0.108 0.498-0.097 0.569 0.13 0.109 0.343 0.378 0.451 0.733 0.376 0.418-0.088 0.184 0.39 0.532 0.348 0.23-0.027 0.471-0.002 0.707 0.015 0.032 0.002 0.054 0.087 0.085 0.132l0.19 0.285c0.377 0.036 0.951 0.003 1.274-0.074l-0.009 0.394c-0.001 0.023 0.166 0.061 0.258 0.070 0.24 0.022 0.566-0.092 0.575 0.272 0.001 0.023 0.234 0.048 0.361 0.061 0.18 0.020 0.436-0.073 0.421 0.212l-0.002 0.038c0.059 0.043 0.366 0.216 0.683 0.384s1.441 0.159 1.599 0.259c0.159 0.1 0.966 0.229 1.4 0.196l0.625 0.238c0.256-0.078 0.587-0.108 0.735-0.066 0.15 0.042 0.83 0.109 1.166 0.162l0.234-0.253c0.037-0.040 0.195-0.005 0.296-0.006l0.399-0.002c0.373-0.16 0.923-0.408 1.222-0.552l0.236-0.19c0.287-0.23 0.454-0.451 0.404-0.788l-0.017-0.111c0.102-0.134 0.233-0.305 0.29-0.38 0.058-0.076 0.168-0.815 0.215-0.921l0.064-0.087c0.146-0.202 0.308-0.395 0.455-0.595 0.071-0.097 0.047-0.404 0.006-0.528-0.048-0.144-0.274-0.276-0.017-0.455l0.073-0.051c-0.051-0.203-0.138-0.334-0.196-0.292-0.057 0.041-0.249 0.079-0.313 0.003s-0.093-0.378-0.094-0.646l-0.062-0.239-0.056-0.217c-0.173-0.171-0.46-0.441-0.637-0.6s-0.254-0.762-0.409-0.815c-0.155-0.054-0.408-0.717-0.748-1.082l-0.207-0.389-0.3-0.564c-0.344-0.617-0.624-1.223-0.622-1.345s-0.392-0.211-0.383-0.319c0.011-0.106-0.602-0.6-0.948-1.068l0.013-0.519c0.005-0.194-0.255-0.174-0.288-0.224l-0.194-0.304c-0.139-0.363-0.169-0.729-0.068-0.814l-0.241-0.036c-0.062-0.009-0.175-0.026-0.175-0.041-0.012-0.521-0.431-0.909-0.649-1.362-0.059-0.12-0.038-0.273-0.018-0.408l0.038-0.26c0.32 0.001 0.8 0.057 1.065 0.123 0.267 0.068 1.157 0.112 1.382-0.032l0.239 0.279c0.117 0.137 0.356 0.205 0.54 0.305 0.033 0.018 0.572 0.183 0.59 0.168l0.133-0.119c0.162 0.046 0.381 0.247 0.487 0.446s0.773-0.056 0.828-0.011l0.003 0.044c0.020 0.348 0.463 0.232 0.504 0.183 0.294-0.34 0.538-0.025 0.769 0.032l0.207 0.051c0.168 0.168 0.31 0.353 0.314 0.412s-0.015 0.226 0.025 0.287c0.040 0.062 0.231 0.211 0.347 0.192s0.54 0.011 0.65-0.007c0.11-0.019 0.424 0.023 0.381 0.159s-0.050 0.529 0.095 0.529c0.146 0 0.518 0.055 0.557 0.123s0.225 0.102 0.327-0.073l0.47 0.317c0.189 0.073 0.595 0.242 0.901 0.377l-0.017 0.32c-0.002 0.040 0.131 0.119 0.199 0.118s0.149-0.072 0.196-0.128l0.091-0.106c0.093-0.141 0.262-0.149 0.375-0.017l0.11 0.091c0.057 0.049 0.212 0.056 0.222 0.097l0.014 0.075c0 0.085 0.049 0.134 0.109 0.11s0.26-0.005 0.223 0.145c-0.038 0.149-0.033 0.499 0.135 0.276l0.116-0.016 0.117-0.015c0.146 0.115 0.623 0.507 1.060 0.871l0.442 0.286c0.084 0.054 0.188-0.024 0.178-0.14l-0.003-0.041c-0.078-0.062-0.020-0.113 0.128-0.113 0.147 0 0.542 0.060 0.553 0.136s0.114 0.297 0.202 0.297c0.088 0 0.384 0.099 0.4 0.22s0.164 0.454 0.291 0.454c0.127 0 0.606 0.137 0.747 0.304s0.645 0.538 0.712 0.529l0.059-0.020c0.116-0.038 0.28-0.146 0.334-0.116l0.194 0.105c0.175 0.159 0.484 0.504 0.686 0.766l0.723 0.165c0.060 0.014 0.161 0.076 0.154 0.096l-0.168 0.505c0.478 0.181 1.003 0.294 1.164 0.251l0.122-0.068c0.156-0.087 0.236-0.245 0.503-0.116l0.359 0.172c0.044 0.218 0.465 0.392 0.938 0.386l0.249 0.365c0.005 0.008 0.202-0.106 0.274-0.085l0.51 0.151c0.025 0.457 0.35 0.794 0.723 0.749l0.006-0.049 0.032-0.22c0.185 0.009 0.523 0.119 0.749 0.246l-0.181 0.152c-0.249 0.208-0.032 0.277 0.093 0.359l0.278 0.182c0.33 0.183 0.712 0.259 0.848 0.168 0.137-0.091 0.712-0.039 0.55-0.010s-0.522 0.172-0.465 0.254c0.058 0.082 0.51 0.179 0.845 0.092l0.14 0.362c0.123 0.315 0.46 0.088 0.676 0.165l0.141 0.050c0.155 0.085 0.316 0.096 0.358 0.023s0.236-0.162 0.347-0.056c0.112 0.106-0.137 0.367 0.052 0.339s0.395 0.42 0.547 0.451c0.153 0.032 0.573 0.142 0.597 0.168l0.029 0.007c0.34 0.075 0.769-0.137 1.028 0.181l0.171 0.208c0.147 0.251 0.451 0.251 0.674-0.001l0.124 0.538c0.052 0.227 0.418 0.487 0.883 0.425 0.125-0.016 0.288 0.096 0.415 0.171 0.161 0.094 0.288 0.23 0.455 0.313l0.525 0.265c0.319-0.261 0.746-0.337 0.949-0.168l0.196 0.141c0.042 0.031 0.14 0.018 0.212 0.013l0.465-0.035c0.083 0.218 0.088 0.568 0.011 0.778l0.334-0.007 0.171-0.003c0.162 0.032 0.36 0.091 0.439 0.131l0.005 0.041 0.022 0.206c0.178-0.030 0.261-0.143 0.183-0.251l0.031-0.031c0.101-0.099 0.243-0.176 0.386-0.234 0.021-0.009 0.14 0.126 0.2 0.202 0.060 0.077 0.149 0.166 0.141 0.244-0.008 0.073-0.25 0.178 0.013 0.197l0.267 0.019c0.321-0.060 0.588-0.031 0.595 0.063 0.005 0.094 0.074 0.387 0.135 0.422l0.057 0.002c0.205 0.008 0.41 0.016 0.613 0.001l0.485-0.035c0.113 0.186 0.3 0.321 0.416 0.3s0.438-0.051 0.655 0.046l0.149-0.242 0.014-0.025c0.254 0.064 0.56 0.23 0.681 0.368l0.131 0.038 0.211 0.061c0.263-0.008 0.597 0.010 0.741 0.039s0.245-0.297 0.286-0.3c0.041-0.004 0.388 0.037 0.693 0.069s1.022-0.319 0.849-0.319c-0.173 0-0.365-0.23-0.119-0.511l0.429 0.307c0.184 0.131 0.766-0.193 0.714-0.398l-0.085-0.331c0.070-0.343 0.288-0.808 0.485-1.034l0.156-0.217c0.159-0.221 0.322-0.446 0.427-0.686 0.079-0.18 0.245-0.443-0.241-0.464-0.030-0.001-0.082-0.178-0.065-0.266 0.023-0.124 0.121-0.238 0.15-0.362l0.013-0.050c-0.069-0.069-0.156-0.104-0.193-0.078s-0.217 0.026-0.214-0.128l-0.006-0.103-0.013-0.222c-0.186-0.171-0.501-0.445-0.7-0.609s-0.546-0.758-0.604-0.794c-0.058-0.037-0.168-0.202-0.259-0.315-0.091-0.115-0.518-0.328-0.353-0.356s0.214-0.409-0.228-0.791l-0.108-0.474c-0.040-0.177-0.21 0.067-0.258 0.045l-0.12-0.057c-0.103-0.103-0.23-0.255-0.282-0.337s-0.026-0.334-0.139-0.367c-0.111-0.033-0.389-0.15-0.316-0.171s0.302-0.264 0.211-0.461c-0.091-0.197-0.775-0.438-0.727-0.675l-0.067-0.19c-0.035-0.099-0.31-0.181-0.488-0.197-0.243-0.023-0.199-0.143-0.26-0.268l-0.16-0.333c-0.242-0.34-0.469-0.71-0.505-0.822s-0.241-0.313-0.28-0.204c-0.040 0.109-0.58 0.064-0.76-0.017l0.108-0.113 0.175-0.186c-0.163-0.034-0.3-0.114-0.304-0.177l0.010-0.056c0.027-0.156 0.075-0.31 0.091-0.467 0.019-0.19-0.008-0.293-0.309-0.402l-0.424-0.153c0.006-0.432-0.006-0.865-0.029-0.962-0.024-0.097-0.257-0.424-0.43-0.605s-0.59-0.681-0.516-0.705c0.073-0.025 0.273-0.138 0.151-0.156s-0.504-0.205-0.531-0.371l0.063-0.137 0.053-0.119c0.171-0.1 0.267-0.196 0.211-0.211-0.054-0.014-0.176-0.168-0.033-0.276s0.525-0.326 0.579-0.277c0.054 0.048 0.254 0.149 0.301 0.098 0.048-0.053 0.44-0.162 0.72-0.075s0.983 0.394 1.065 0.267c0.082-0.128 0.526 0.004 0.491 0.036s0.073 0.209 0.375 0.27c0.303 0.061 1.125 0.166 1.090 0.085s-0.029-0.319 0.127-0.269c0.156 0.051 0.507 0.205 0.467 0.242-0.042 0.037-0.175 0.217-0.058 0.187s0.384-0.097 0.435-0.109c0.051-0.011 0.355 0.007 0.565 0.066s0.574 0.362 0.431 0.486c-0.143 0.124 0.357 0.23 0.466 0.034l0.303-0.066c0.030-0.032 0.143 0.094 0.251 0.282 0.107 0.187 0.886 0.326 1.067 0.343 0.179 0.017 0.634 0.333 0.745 0.402s0.567-0.146 0.654-0.371l0.492 0.304c0.299 0.026 0.293 0.087-0.013 0.136l-0.155 0.097-0.078 0.048c0.035 0.194 0.192 0.359 0.347 0.365l0.048-0.041 0.405-0.346c0.098 0.305 0.352 0.405 0.564 0.222l0.628 0.234c0.361-0.041 0.688-0.069 0.727-0.063 0.039 0.005 0.391 0.453 0.548 0.574l0.172 0.066c0.061 0.024 0.279-0.074 0.282-0.125l0.020-0.282c0.227 0.054 0.588 0.211 0.802 0.349s0.787 0.469 0.812 0.426c0.025-0.044 0.111-0.009 0.114 0.209l0.245 0.139c0.133 0.075 0.019 0.384 0.338 0.279 0.088-0.029 0.087-0.228 0.137-0.347l0.019-0.048c0.036-0.040 0.162 0.116 0.28 0.347l0.165 0.18 0.214 0.236c0.303-0.21 0.606-0.439 0.674-0.507l0.071-0.007c0.174-0.015 0.154 0.027 0.123 0.171l-0.031 0.146c0.147 0.174 0.415 0.367 0.599 0.427s0.784 0.254 0.954 0.325c0.171 0.073 0.693 0.247 0.792 0.175s0.355-0.24 0.375-0.231c0.019 0.009 0.045 0.089 0.013 0.159s0.002 0.278 0.177 0.248c0.174-0.029 0.662-0.054 0.608 0.025-0.055 0.081-0.016 0.345 0.177 0.456l0.173 0.049c0.092 0.026 0.303-0.012 0.322-0.060 0.066-0.162-0.035-0.253-0.26-0.24l-0.042 0.002c-0.095-0.074 0.101-0.233 0.436-0.353l0.092 0.391c0.029 0.122 0.121 0.236 0.2 0.347l0.214 0.3c0.33-0.054 0.739-0.128 0.911-0.164l0.157-0.015 0.042-0.005c0.063 0.057 0.058 0.119-0.010 0.138s-0.249 0.142-0.151 0.2c0.097 0.057 0.415 0.149 0.438 0.046s0.1-0.346 0.128-0.339c0.027 0.008 0.192 0.21 0.307 0.433l0.356-0.325c0.316 0.123 0.4 0.279 0.19 0.347l-0.1 0.070c-0.041 0.029 0.013 0.208 0.018 0.208 0.325-0.008 0.649-0.026 0.972-0.054 0.011-0.001 0.003-0.103 0.018-0.154l0.006-0.023c0.048-0.032 0.178 0.047 0.289 0.174s0.569 0.425 0.726 0.331l0.118-0.085 0.127-0.091c0.147-0.125 0.328-0.151 0.403-0.058 0.073 0.094 0.374 0.265 0.541 0.225l0.147-0.017c0.013-0.002 0.078 0.141 0.070 0.212l-0.011 0.082c-0.060 0.086-0.013 0.163 0.104 0.17l0.059-0.038c0.135-0.091 0.317-0.22 0.411-0.066 0.205 0.333 0.646 0.227 0.937 0.396l0.351 0.204c0.038-0.257 0.129-0.396 0.203-0.307s0.392 0.281 0.417 0.086l-0.054-0.038c-0.185-0.128-0.135-0.221 0.030-0.297 0.101-0.047 0.317-0.093 0.332-0.070l0.245 0.354c0.467 0.066 0.938 0.231 1.046 0.368l0.139 0.070 0.126 0.064c0.186 0.009 0.485 0.052 0.667 0.095s0.793 0.030 1.117 0.081l0.183-0.271c0.048-0.070 0.285-0.145 0.326-0.116l0.262 0.186c0.286-0.085 0.695-0.128 0.908-0.095s0.895-0.352 1.17-0.47c0.273-0.119 1.154-0.009 1.238-0.054l0.081-0.044 0.589-0.313c0.649-0.344 1.272-0.73 1.382-0.858 0.112-0.129 0.387-0.558 0.49-0.613s-0.046-0.313-0.050-0.328c-0.003-0.014-0.029-0.349-0.035-0.722l0.091-0.324c0.048-0.168 0.23-0.309 0.348-0.464l0.119-0.154c0.141-0.188 0.165-0.429 0.055-0.535l-0.353-0.086c-0.024 0.161-0.116 0.298-0.203 0.305l-0.039-0.029c-0.035-0.026 0.002-0.145-0.020-0.149l-0.111-0.026c-0.129-0.008-0.217 0.021-0.196 0.065 0.022 0.042-0.069 0.142-0.251 0.123s-0.422 0.416-0.578 0.464c-0.156 0.049-0.458 0.476-0.563 0.55s-0.486 0.19-0.561 0.165c-0.075-0.024-0.317-0.009-0.367 0.094l-0.064 0.087c-0.006 0.008-0.134-0.059-0.208-0.062l-0.115-0.005c-0.128 0.018-0.474 0.085-0.768 0.149s-1.316 0.096-1.614 0.063c-0.299-0.033-1.152-0.159-1.233-0.183-0.082-0.025-0.457-0.045-0.645-0.014s-0.854-0.171-1.173-0.106l-0.203-0.263c-0.013-0.017-0.061-0.026-0.088-0.020l-0.38 0.064c-0.423 0.048-0.881-0.014-1.021-0.139-0.138-0.125-1.017-0.355-1.413-0.456l-0.352-0.11c-0.116-0.036-0.294 0.329-0.351-0.047-0.040-0.261-0.32-0.106-0.489-0.144l-0.183-0.041c-0.202-0.041-0.492-0.023-0.644 0.043s-0.668-0.276-0.823-0.328c-0.155-0.051-0.859-0.23-1.197-0.3l-0.293-0.094c-0.528-0.169-1.161-0.147-1.553-0.578l-0.051-0.057c-0.183 0.014-0.571 0.029-0.862 0.035l-0.189-0.214-0.063-0.072c-0.151-0.027-0.39-0.057-0.533-0.066s-0.51-0.247-0.584-0.287c-0.073-0.040-0.838-0.213-1.519-0.346l-0.519-0.337c-0.029-0.018-0.253 0.286-0.323-0.072l-0.023-0.113c-0.279-0.084-0.82-0.236-1.202-0.336s-1.501-0.399-1.672-0.392c-0.17 0.008-0.637-0.194-0.877-0.282s-0.914-0.384-0.995-0.419c-0.082-0.036-0.492-0.072-0.734-0.088s-0.874-0.323-1.082-0.319c-0.207 0.005-1.068-0.487-1.631-0.722l-0.6 0.342c-0.078-0.035-0.356-0.149-0.619-0.254l-0.167-0.187c-0.277-0.311-0.799-0.070-1.162-0.346l-0.272-0.205c-0.484-0.064-1.099-0.168-1.367-0.23l-0.245-0.054-0.387-0.084c-0.161 0.123-0.372 0.097-0.471-0.056s-0.664 0.086-0.733 0.091l-0.008-0.016c-0.056-0.111-0.008-0.32-0.255-0.257l-0.177 0.045c-0.177 0.14-0.347 0.192-0.378 0.115s-0.593-0.18-1.165-0.227l-0.447 0.131c-0.343 0.101-0.489-0.248-0.79-0.076l-0.253 0.146c-0.329 0.102-0.723 0.207-0.877 0.235s-0.617 0.153-0.699 0.185c-0.081 0.032-0.358 0.341-0.49 0.571l-0.133 0.007-0.43 0.023c0.070 0.206-0.060 0.663-0.288 1.016l-0.515 0.615c-0.137 0.416-0.263 0.787-0.277 0.824s-0.028 0.338-0.057 0.653l0.017 0.293 0.029 0.482c0.173 0.331 0.389 0.732 0.482 0.89l-0.194 0.036c-0.525 0.097-0.31 0.267-0.082 0.418 0.341 0.228 0.617 0.508 0.937 0.746 0.373 0.276 0.272 0.59 0.284 0.907l0.001 0.032c-0.074 0.038-0.195 0.118-0.269 0.177s0.313 0.273 0.418 0.33l0.056 0.072 0.167 0.218c0.193 0.288 0.384 0.417 0.424 0.286l0.027-0.072c0.038-0.103-0.384-0.146-0.056-0.269 0.047-0.017 0.181 0.092 0.256 0.158 0.063 0.055 0.1 0.131 0.147 0.199l0.223 0.314c-0.358 0.149-0.544 0.284-0.414 0.299s0.477 0.098 0.377 0.135c-0.101 0.036-0.239 0.165-0.157 0.229s0.454 0.116 0.454 0.268c0 0.152 0.089 0.638 0.197 0.537s0.285-0.18 0.232-0.027c-0.053 0.153 0.288 0.504 0.322 0.482s0.205-0.055 0.22 0.028c0.014 0.082-0.023 0.324-0.132 0.264l-0.063-0.003c-0.057-0.003-0.171 0.057-0.168 0.062l0.077 0.168c0.101 0.174 0.322 0.485 0.494 0.691 0.171 0.208 0.881 0.966 1.135 1.302l0.134 0.349 0.066 0.177c0.126 0.176 0.328 0.347 0.448 0.381s0.255 0.224 0.277 0.132c0.023-0.091 0.139-0.215 0.208-0.070s-0.114 0.521 0.042 0.528c0.156 0.007 0.643 0.182 0.797 0.305l-0.026 0.086c-0.093 0.318-0.208-0.053-0.288-0.011-0.063 0.033-0.123 0.177-0.094 0.202l0.129 0.109c0.173 0.095 0.45 0.211 0.615 0.257l0.131 0.067c0.070 0.035 0.15 0.171 0.128 0.192-0.106 0.101-0.302 0.159-0.356 0.268l-0.042 0.085c0.092 0.138 0.060 0.283-0.073 0.321l-0.028-0.027c-0.225-0.22-0.559-0.254-0.831-0.376-0.292-0.131-0.596 0.292-0.816-0.103-0.178-0.319-0.61-0.119-0.92-0.181-0.117-0.023-0.22-0.108-0.316-0.178-0.276-0.202-0.588-0.288-0.962-0.33-0.331-0.036-0.671-0.167-0.951-0.325l-0.501-0.284c-0.608-0.254-1.192-0.396-1.298-0.316s-0.443 0.271-0.415 0.174c0.029-0.098 0.085-0.358 0.070-0.386l-0.863-0.127c-0.698-0.438-1.684-1.005-2.191-1.261l-0.524-0.106c-0.25-0.051-0.153-0.208-0.252-0.284-0.085-0.066-0.224-0.087-0.343-0.122-0.396-0.119-0.816-0.205-1.062-0.528l-0.029-0.038c-0.073-0.021-0.364-0.096-0.646-0.166s-1.305-0.687-1.748-0.994l-1.749-0.524c-1.201-0.686-2.47-1.401-2.819-1.589s-1.456-0.72-1.604-0.874l-0.165-0.032-0.41-0.080c-0.308-0.24-0.673-0.541-0.811-0.67s-0.995-0.223-1.354-0.381c-0.357-0.158-1.316-0.914-1.521-1.068s-1.051-0.393-1.19-0.458c-0.14-0.063-0.858-0.568-1.352-0.918l-0.857-0.252c-0.144-0.18-0.379-0.372-0.522-0.428s-0.538-0.289-0.602-0.334c-0.063-0.045-0.329-0.131-0.476-0.208s-0.711-0.257-1-0.368l-0.666-0.462c-0.537-0.285-1.034-0.553-1.105-0.597-0.072-0.044-0.559-0.149-0.871-0.198l-0.258-0.092-0.232-0.082c-0.227-0.144-0.611-0.352-0.854-0.463l-0.22-0.102c-0.248-0.113-0.631-0.186-0.712-0.355l-0.127-0.262c-0.226 0.015-0.645-0.055-0.931-0.156s-1.546-0.554-2.172-0.772l-1.196-0.034c-0.623-0.128-1.74-0.243-2.484-0.254l-0.759 0.388c-0.112-0.038-0.32-0.008-0.464 0.066l-0.064 0.077c-0.168 0.2-0.378-0.042-0.433 0.020l-0.202 0.228c-0.176 0.279-0.368 0.66-0.426 0.848s-0.597 0.563-0.667 0.612l0.009 0.032c0.1 0.365-0.208 0.589-0.4 0.867-0.182 0.264-0.202 0.596-0.358 0.875l-0.223 0.399c-0.021 0.461-0.034 1.161-0.029 1.556l0.226 0.278c0.27 0.333 0.304 0.676 0.399 1.037l0.082 0.308c0.32 0.299 0.734 0.469 0.918 0.378l0.089 0.188 0.079 0.168c0.004 0.202 0.021 0.536 0.040 0.743l0.254 0.075 0.088 0.026c0.177 0.004 0.23 0.092 0.115 0.198l-0.091 0.046-0.105 0.055c-0.147 0.041-0.095 0.094 0.116 0.114s0.551 0.367 0.443 0.381c-0.109 0.014-0.296 0.174-0.131 0.32s0.2 0.809 0.242 1.002c0.041 0.193 0.595 0.5 0.546 0.63l0.053 0.048 0.129 0.121c0.154 0.136 0.125 0.378-0.066 0.536l0.754-0.001c0.032 0.195 0.159 0.384 0.283 0.421l-0.001 0.034-0.004 0.131c-0.045 0.143-0.031 0.31 0.033 0.368s0.192 0.277 0.133 0.411l0.12 0.124 0.159 0.163c0.159 0.188 0.231 0.566 0.161 0.842l0.741 0.020c0.12 0.189 0.233 0.408 0.251 0.488 0.017 0.081-0.65 0.16-1.535-0.051s-3.432-1.166-3.886-1.375c-0.455-0.208-1.999-0.603-2.29-0.652s-0.954-0.682-1.206-0.812c-0.251-0.131-1.173-0.493-1.45-0.581s-0.981-0.526-1.073-0.572c-0.091-0.047-0.652-0.168-1.028-0.254l-0.207-0.297-0.077-0.112c-0.227-0.059-1.533-0.533-2.903-1.054l-1.26-0.945c-0.307-0.156-0.72-0.32-0.917-0.363-0.196-0.044-0.748-0.467-0.903-0.561s-0.678-0.418-0.815-0.508c-0.138-0.091-0.572-0.349-0.646-0.386s-0.454-0.163-0.662-0.227l-0.396-0.341c-0.106-0.091-0.257-0.16-0.402-0.206l-0.412-0.131c-0.335-0.264-1.050-0.655-1.588-0.872l-0.39-0.328-0.087-0.072c-0.126-0.056-0.384-0.205-0.572-0.331s-1.051-0.554-1.377-0.777l-0.338-0.14-0.375-0.155c-0.371-0.213-0.92-0.528-1.216-0.701s-1.272-0.584-1.374-0.681c-0.103-0.096-0.372-0.331-0.171-0.51l-0.523 0.028c-0.158 0.009-0.322-0.153-0.496-0.215-0.201-0.072-0.433-0.096-0.618-0.186-0.17-0.083-0.285-0.319-0.44-0.329-0.546-0.035-0.819-0.405-1.236-0.592-0.812-0.364-1.601-0.763-2.39-1.16l-0.382-0.193c-0.406-0.23-1.476-0.672-2.379-0.985l-0.898-0.636c-0.267 0.028-0.766-0.062-1.11-0.199s-1.372-0.488-1.579-0.386l-0.137-0.263c-0.114-0.222-0.412-0.119-0.615-0.185l-0.204-0.067c-0.202-0.116-1.281-0.531-2.396-0.921l-1.339-0.255c-0.277-0.036-0.615-0.088-0.751-0.114s-0.918-0.157-1.446-0.208c-0.528-0.049-2.132-0.036-2.396-0.014s-1.118 0.368-1.403 0.485l-0.094 0.168-0.491 0.869c-0.682 0.892-1.382 1.948-1.555 2.347l-0.15 0.365-0.154 0.374c0.104 0.383 0.144 0.809 0.089 0.946s-0.029 0.68-0.014 0.905c0.016 0.227 0.177 0.853 0.076 0.965s0.325 0.569 0.424 0.772l0.069 0.198c0.079 0.224 0.116 0.458 0.214 0.676l0.085 0.192c0.14 0.197 0.327 0.559 0.415 0.804l0.114 0.21c0.064 0.118 0.188 0.223 0.313 0.308 0.224 0.152 0.249 0.345 0.318 0.563 0.129 0.417 0.365 0.821 0.632 1.194 0.165 0.232 0.477 0.391 0.704 0.597 0.168 0.152-0.078 0.522 0.424 0.527 0.054 0.001 0.107 0.285 0.15 0.44l0.009 0.034c-0.032 0.042 0.14 0.273 0.384 0.511 0.244 0.239 0.997 1.020 1.088 1.241s0.928 0.788 1.142 1.111l0.141 0.314c0.044 0.097 0.050 0.256 0.126 0.282 0.513 0.174 0.527 0.584 0.717 0.915z"></path>
</symbol>

<symbol id="icon-line2" viewBox="0 0 240 32">
<path d="M73.777 16.441c-0.415-0.116-0.57-0.257-0.347-0.313s0.836-0.289 0.972-0.218c0.136 0.070 0.662 0.147 0.806 0.235s0.815-0.097 1.15-0.048c0.334 0.048 1.387 0.337 1.747 0.338s1.169 0.539 1.387 0.475c0 0 0 0 0.195 0.023 0.135 0.016 0.227 0.214 0.372 0.267 0.082 0.029 0.279-0.132 0.348-0.1 0.314 0.147 0.314 0.147 0.314 0.147 0.323 0.195 0.76 0.355 0.973 0.356s1.259 0.456 1.843 0.714c0 0 0 0 0.535 0.136 0.514 0.13 0.514 0.13 0.514 0.13 0.206 0.275 0.519 0.419 0.696 0.32 0 0 0 0 0.114 0.028 0.26 0.064 0.26 0.064 0.26 0.064 0.259 0.138 0.783 0.453 1.164 0.701s1.739 0.848 1.991 0.997c0 0 0 0 0.25 0.1 0.245 0.097 0.245 0.097 0.245 0.097 0.158 0.181 0.321 0.348 0.363 0.371 0 0 0 0 0.011 0.028 0.024 0.063 0.068 0.153 0.034 0.189-0.063 0.068-0.063 0.068-0.063 0.068-0.107 0.044-0.377 0.102-0.599 0.129s-1.095 0.064-1.377-0.024c0 0 0 0-0.264-0.064-0.326-0.080-0.326-0.080-0.326-0.080-0.36-0.046-1.009-0.039-1.442 0.014 0 0 0 0-0.413-0.087-0.316-0.066-0.316-0.066-0.316-0.066-0.207 0.224-0.532 0.425-0.723 0.446 0 0 0 0-0.083-0.061-0.41-0.308-0.41-0.308-0.41-0.308-0.41-0.034-1.034-0.073-1.386-0.086 0 0 0 0-0.309-0.057-0.348-0.065-0.729-0.278-0.804 0.248-0.003 0.018-0.351 0.064-0.406 0.009-0.244-0.243-0.244-0.243-0.244-0.243-0.216-0.286-0.468-0.47-0.559-0.409-0.093 0.061-0.232 0.237-0.132 0.277s0.143 0.097-0.3-0.029c-0.444-0.126-1.342-0.712-1.375-0.541s-0.286 0.419-0.5 0.239c-0.214-0.179-0.818-0.726-0.973-0.795-0.156-0.070-0.631-0.206-0.589-0.308s-0.564-0.552-0.893-0.793c0 0 0 0-0.151-0.322-0.084-0.179-0.18-0.451-0.341-0.491-0.345-0.086-0.397-0.214-0.451-0.481-0.054-0.27-0.434-0.505-0.461-0.771-0.048-0.448-0.048-0.448-0.048-0.448zM191.755 19.191c0.209-0.126 0.24-0.249 0.071-0.272s-0.915-0.217-1.268-0.376c0 0 0 0-0.052-0.289-0.075-0.414-0.576-0.406-0.83-0.64-0.234-0.217-0.58-0.354-0.877-0.526-0.291-0.169-0.564-0.369-0.881-0.496-0.611-0.245-1.093-0.587-1.325-1.105-0.095-0.213-0.119-0.383-0.463-0.335-0.275 0.039-0.355-0.078-0.371-0.293-0.005-0.058-0.323-0.074-0.385-0.161-0.061-0.085 0.065-0.338 0.036-0.346-0.583-0.168-0.583-0.168-0.583-0.168-0.324-0.434-0.702-0.915-0.841-1.072s-1.193-0.804-1.884-1.251c0 0 0 0-0.476-0.569-0.36-0.429-0.36-0.429-0.36-0.429-0.59-0.331-1.019-0.719-0.952-0.863 0 0 0 0-0.049-0.041-0.101-0.084-0.101-0.084-0.101-0.084-0.172-0.043-0.508-0.356-0.748-0.696s-0.925-1.453-1.054-1.697c-0.129-0.244-0.448-1.175-0.483-1.51s1.013-0.909 1.146-0.975c0.132-0.065 0.6-0.137 0.805-0.036s1.134 0.254 1.656 0.396c0.523 0.141 2.243 0.65 2.659 0.849s2.043 1.192 2.742 1.69c0 0 0 0 0.848 0.187 0.047 0.011 0.048 0.127 0.101 0.168 0.25 0.191 0.699 0.355 0.729 0.563 0.069 0.473 0.651 0.22 0.817 0.488 0.027 0.044 0.19 0.040 0.204 0.079 0.204 0.567 0.901 0.799 1.267 1.245 0.377 0.459 0.658 0.966 1.077 1.411 0.361 0.384 0.669 0.813 0.912 1.255 0.229 0.413 0.576 0.764 0.793 1.193 0.196 0.386 0.196 0.386 0.196 0.386 0.35 0.432 0.655 0.882 0.678 1 0 0 0 0-0.060 0.050-0.362 0.304-0.289 0.445 0.212 0.531 0.072 0.012 0.113 0.308 0.092 0.466-0.016 0.122-0.016 0.122-0.016 0.122-0.031 0.145-0.045 0.542-0.031 0.882 0 0 0 0 0.279 0.325 0.209 0.244 0.209 0.244 0.209 0.244 0.019 0.428 0.113 0.916 0.206 1.084s-0.38 0.632-0.388 0.802c-0.011 0.17-0.994-0.238-1.537-0.606 0 0 0 0-0.602-0.201-0.255-0.085-0.527-0.142-0.774-0.241-0.346-0.138-0.346-0.138-0.346-0.138zM238.288 27.497c-0.192-0.005-0.307-0.097-0.253-0.203s0.054-0.361-0.169-0.211c-0.224 0.15-0.635 0.81-0.672 0.662s-0.207-0.575-0.242-0.407c-0.035 0.167-0.311 0.465-0.563 0.419s-1.246 0.053-1.631 0.179c0 0 0 0-0.403-0.028-0.187-0.013-0.383 0.076-0.576 0.118-0.232 0.050-0.574 0.039-0.673 0.16-0.23 0.282-0.345-0.116-0.584-0.012-0.208 0.091-0.208 0.091-0.208 0.091-0.349-0.081-0.912-0.065-1.25 0.034 0 0 0 0-0.308 0.004-0.423 0.005-0.904-0.203-1.258-0.097-0.49 0.146-0.49 0.146-0.49 0.146-0.418-0.135-1.307-0.281-1.976-0.324 0 0 0 0-0.627 0.057-0.598 0.055-1.234 0.129-1.83-0.17-0.217-0.109-0.63-0.092-0.873 0.003s-0.329 0.096-0.585 0.008c-0.294-0.102-0.698-0.466-1.065-0.032-0.019 0.022-0.202 0.001-0.223-0.034-0.176-0.295-0.378 0.058-0.552-0.023-0.208-0.096-0.402-0.249-0.624-0.279-0.196-0.026-0.196-0.026-0.196-0.026-0.235 0.079-0.86 0.092-1.389 0.030s-1.969-0.419-2.073-0.501c0 0 0 0-0.19 0.126-0.241 0.161-0.499 0.108-0.788-0.050-0.284-0.157-0.663-0.202-1.007-0.282-0.346-0.080-0.721-0.237-1.042-0.186-0.38 0.060-0.64-0.271-0.991-0.108-0.036 0.017-0.074 0.074-0.090 0.069-0.377-0.122-0.643-0.505-1.151-0.315l-1.224-0.129c-0.382-0.173-0.382-0.173-0.382-0.173-0.425-0.182-1.304-0.425-1.954-0.541 0 0 0 0-0.598-0.076-0.246-0.032-0.535 0.042-0.497-0.301 0.003-0.033-0.242-0.14-0.287-0.114-0.626 0.359-0.626 0.359-0.626 0.359-0.451-0.364-1.007-0.737-1.236-0.829s-0.967-0.464-1.137-0.613c-0.169-0.148-1.188-0.039-1.662-0.123s-1.733-1.096-2.247-1.366c0 0 0 0-0.643 0.030-0.352 0.016-0.352 0.016-0.352 0.016-0.463-0.234-0.505-0.797-0.092-1.252 0 0 0 0 0.199-0.429 0.222-0.48 0.483-0.972 0.614-1.459 0.298-1.105 0.745-2.214 0.54-3.37-0.126-0.714-0.126-0.714-0.126-0.714-0.065-0.788-0.175-1.747-0.247-2.132 0 0 0 0 0.089-0.385 0.083-0.363-0.101-0.78-0.231-1.159-0.126-0.37-0.126-0.37-0.126-0.37-0.21-0.391-0.46-0.841-0.557-1s-0.363-0.727-0.401-0.901c-0.039-0.174-0.606-0.481-0.663-0.57 0 0 0 0-0.039-0.088-0.265-0.612-0.265-0.612-0.265-0.612-0.615-0.662-1.539-1.534-2.054-1.936 0 0 0 0-0.204-0.447-0.153-0.334-0.637-0.309-0.714-0.693-0.042-0.206-0.555-0.345-0.845-0.525-0.135-0.084-0.264-0.184-0.361-0.296-0.113-0.131-0.152-0.315-0.289-0.417-0.089-0.065-0.244 0.29-0.443 0.038-0.118-0.15-0.578 0.011-0.476-0.344l-1.201-0.813c-0.518-0.308-0.518-0.308-0.518-0.308-0.625-0.252-1.609-0.682-2.186-0.958 0 0 0 0-0.473-0.3-0.286-0.181-0.547-0.242-0.886-0.303-0.491-0.088-0.937-0.335-1.413-0.492-0.405-0.133-0.808-0.357-1.275-0.116-0.062 0.031-0.168 0.005-0.253 0.005-0.535 0-0.535 0-0.535 0-0.567-0.119-1.497-0.14-2.067-0.046 0 0 0 0-0.525 0.039-0.53 0.039-0.53 0.039-0.53 0.039-0.575 0.080-1.273 0.145-1.551 0.146s-1.137 0.527-1.526 0.647c-0.388 0.12-1.935 1.095-2.686 1.71 0 0 0 0-0.065 0.464-0.054 0.381-0.054 0.381-0.054 0.381-0.294 0.263-0.676 0.734-0.847 1.047 0 0 0 0-0.157 0.296-0.171 0.325-0.321 0.657-0.474 0.989-0.042 0.090-0.024 0.225-0.1 0.274-0.184 0.122-0.443 0.176-0.603 0.311-0.149 0.127 0.22 0.345-0.097 0.532-0.153 0.090-0.166 0.353-0.214 0.543-0.114 0.462-0.296 0.928-0.292 1.392 0.005 0.527 0.005 0.527 0.005 0.527 0.125 0.582 0.473 1.762 0.772 2.621 0 0 0 0 0.27 0.778 0.198 0.572 0.198 0.572 0.198 0.572 0.562 0.542 1.236 1.273 1.5 1.622 0 0 0 0 0.458 0.212 0.396 0.182 0.396 0.182 0.396 0.182 0.297 0.401 0.82 0.912 1.162 1.133s1.326 1.038 1.537 1.241c0.211 0.202 0.868 0.635 0.764 0.792-0.105 0.156 0.783 0.298 1.146 0.481s1.894 1.776 3.257 2.674c0 0 0 0 1.302 0.742 1.613 0.92 3.291 1.764 4.951 2.63 0.298 0.156 0.298 0.156 0.298 0.156 0.364 0.121 0.116 0.474-0.555 0.783s-3.36 1.077-4.337 1.289c0 0 0 0-0.897 0.163-0.521 0.094-0.521 0.094-0.521 0.094-0.585-0.047-1.28-0.028-1.544 0.045s-1.203-0.036-1.44 0.001c0 0 0 0-0.196 0.080-0.249 0.101-0.341-0.345-0.609-0.096-0.032 0.029-0.128 0.042-0.177 0.027-0.144-0.048-1.445-0.239-1.604-0.248-0.124-0.008-0.247-0.097-0.363-0.089-0.614 0.040-1.216-0.564-1.847-0.025-0.036 0.030-0.036 0.030-0.036 0.030-0.161-0.061-0.783-0.216-1.382-0.345s-2.156-0.632-2.037-0.977c0 0 0 0-0.526 0.398-0.316 0.239-0.316 0.239-0.316 0.239-0.321-0.111-0.954-0.307-1.406-0.434s-2.006-0.625-2.504-0.698c0 0 0 0-0.328-0.2-0.357-0.216-0.69 0.098-0.701 0.064-0.284-0.846-0.284-0.846-0.284-0.846-0.933-0.048-1.76-0.088-1.837-0.088s-0.388 0.065-0.521 0.101c-0.133 0.036-0.586-0.52-0.942-0.502s-1.692-0.466-2.233-0.697c0 0 0 0-0.518-0.156-0.371-0.11-0.691-0.335-1.15-0.291-0.182 0.018-0.385-0.225-0.605-0.298-0.122-0.041-0.122-0.041-0.122-0.041-0.179 0.041-0.432-0.159-0.562-0.442 0 0 0 0-0.424 0.326-0.041 0.030-0.401-0.277-0.648-0.345-0.2-0.055-0.2-0.055-0.2-0.055-0.28 0.009-0.72-0.053-0.977-0.138 0 0 0 0-0.133-0.228-0.054-0.093-0.212-0.215-0.312-0.209-0.455 0.027-1.136 0.009-1.328-0.233-0.4-0.506-0.4-0.506-0.4-0.506-0.677-0.2-1.356-0.429-1.511-0.508 0 0 0 0-0.149-0.011-0.319-0.022-0.688 0.065-0.714-0.354-0.002-0.028-0.219-0.071-0.335-0.067-0.461 0.015-0.788-0.065-0.91-0.503-0.068-0.239-0.289 0.062-0.317 0.040-0.319-0.241-0.319-0.241-0.319-0.241-0.413-0.185-1.267-0.554-1.898-0.821 0 0 0 0-0.593-0.118-0.532-0.106-0.532-0.106-0.532-0.106-0.486-0.242-1.293-0.612-1.793-0.822 0 0 0 0-0.415-0.252-0.178-0.109-0.615 0.288-0.589-0.226 0.003-0.091-0.462-0.197-0.711-0.297-0.29-0.116-0.29-0.116-0.29-0.116-0.33-0.072-0.931-0.283-1.335-0.47s-1.978-0.823-2.554-1.129c-0.575-0.307-2.544-0.664-2.776-0.765-0.231-0.1-0.984-0.487-1.234-0.54s-1.030-0.457-1.259-0.509c-0.23-0.053-0.961 0.11-1.085 0.13s-0.27-0.026 0.119-0.163c0 0 0 0-0.105-0.371-0.068-0.233-0.185-0.286-0.418-0.225-0.149 0.039-0.382 0.196-0.402 0.178-0.77-0.725-0.77-0.725-0.77-0.725-1.168 0.129-2.029 0.202-1.913 0.163s0.174-0.216-0.094-0.318c-0.269-0.102-1.31-0.403-1.727-0.459 0 0 0 0-0.245-0.175-0.272-0.195-0.272-0.195-0.272-0.195-0.336-0.002-1.138-0.256-1.781-0.566 0 0 0 0-0.688 0.001-0.484 0.001-0.484 0.001-0.484 0.001-0.323-0.249-0.774-0.367-1.001-0.264s-0.811-0.016-0.721-0.328c0 0 0 0-0.574-0.070-0.25-0.030-0.456-0.156-0.696 0.014-0.035 0.025-0.035 0.025-0.035 0.025-0.104-0.037-0.768-0.345-1.474-0.683 0 0 0 0-0.583 0.045-0.31 0.024-0.63 0.21-0.911 0.168-0.291-0.043-0.534-0.279-0.809-0.418-0.27-0.137-0.542-0.281-0.835-0.376-0.207-0.067-0.207-0.067-0.207-0.067-0.257 0.039-0.637 0.187-0.842 0.329 0 0 0 0-0.022-0.365-0.003-0.046-0.358-0.095-0.553-0.11-0.607-0.049-0.607-0.049-0.607-0.049-0.75-0.045-1.408-0.033-1.464 0.025s-0.281 0.258-0.309 0.248c-0.027-0.011-0.081-0.115-0.053-0.206s0.057-0.404-0.016-0.421c-0.072-0.018-0.463 0.176-0.775 0.368 0 0 0 0-0.079-0.496-0.005-0.030-0.358-0.086-0.406-0.037-0.226 0.233-0.316-0.014-0.473-0.041-0.113-0.019-0.26 0.159-0.406 0.177s-0.146 0.020-0.146 0.020c-0.165-0.056-0.49-0.188-0.722-0.295s-1.223-0.401-1.74-0.396c0 0 0 0-0.375-0.215-0.402-0.231-0.755-0.234-1.143-0.011-0.039 0.022-0.151 0.016-0.175-0.009-0.519-0.569-0.519-0.569-0.519-0.569-0.728 0.207-1.218 0.391-1.089 0.411s0.44 0.152 0.179 0.215c0 0 0 0-0.078 0.087-0.235 0.263-0.322-0.045-0.469-0.050-0.26-0.011-0.28-0.195-0.397-0.266-0.322-0.198-0.322-0.198-0.322-0.198-0.6-0.155-0.924-0.125-0.722 0.065 0 0 0 0 0.029 0.098 0.024 0.080 0.024 0.080 0.024 0.080-0.066 0.107-0.278 0.169-0.472 0.14 0 0 0 0-0.042-0.076-0.311-0.573-0.311-0.573-0.311-0.573-0.609-0.040-1.311-0.102-1.557-0.138 0 0 0 0-0.12 0.042-0.431 0.15-0.431 0.15-0.431 0.15-0.432-0.102-0.944-0.25-1.14-0.331s-0.824 0.124-0.97 0.091c-0.147-0.033-0.635 0.003-0.719-0.054-0.083-0.056-0.444-0.188-0.568-0.124s-0.646 0.217-0.838 0.177c-0.192-0.039-1.076-0.331-1.547-0.547 0 0 0 0-0.364 0.059-0.779 0.124-0.779 0.124-0.779 0.124-0.731-0.219-1.76-0.33-2.285-0.248 0 0 0 0-0.481 0.046-0.27 0.026-0.27 0.026-0.27 0.026-0.308-0.085-0.806-0.123-1.106-0.083s-1.405-0.19-1.775-0.312c0 0 0 0-0.283 0.185-0.3 0.197-0.3 0.197-0.3 0.197-0.324-0.051-0.657-0.137-0.74-0.191 0 0 0 0-0.027 0.013-0.733 0.4-1.577 0.016-2.328 0.223-0.26 0.072-0.26 0.072-0.26 0.072-0.262 0.151-0.554 0.215-0.648 0.143s-0.767-0.183-1.19-0.011c-0.423 0.173-2.454 0.534-3.562 0.788 0 0 0 0-0.983 0.259-0.401 0.105-0.784 0.287-1.208 0.401-0.472 0.128-0.472 0.128-0.472 0.128-0.435 0.34-0.954 0.751-1.154 0.913s-0.76 0.643-0.794 0.714 0.002 0.399-0.027 0.507c-0.027 0.108-0.642 0.252-0.811 0.29 0 0 0 0-0.001 0.039-0.005 0.377-0.005 0.377-0.005 0.377-0.327 0.155-0.865 0.129-1.194-0.058s-1.481 0.208-1.674 0.223c-0.195 0.016-0.89-0.093-1.233 0.080 0 0 0 0-0.349-0.268-0.050-0.039-0.050-0.039-0.050-0.039-0.097-0.003-0.395-0.042-0.662-0.086s-1.086 0.097-1.222 0.122c-0.137 0.027-0.485 0.179-0.587 0.188s-1.121-0.025-2.015-0.054c0 0 0 0-0.81 0.046-0.238 0.014-0.418 0.099-0.7 0.007s-0.742-0.091-0.973 0.043c-0.292 0.17-0.292 0.17-0.292 0.17-0.299-0.017-0.774-0.032-1.056-0.034 0 0 0 0-0.256 0.009-0.249 0.009-0.631-0.039-0.717 0.066-0.234 0.289-0.234 0.289-0.234 0.289-0.187-0.154-0.475-0.356-0.642-0.45-0.166-0.094-0.891 0.322-1.221 0.402 0 0 0 0-0.318 0.008-0.29 0.006-0.29 0.006-0.29 0.006-0.303-0.054-0.693-0.093-0.867-0.086s-0.904 0.098-1.259 0.14c0 0 0 0-0.322 0.041-0.4 0.051-0.4 0.051-0.4 0.051-0.436 0.071-0.966 0.155-1.179 0.185s-1.020-0.047-1.286-0.088c-0.265-0.041-1.137 0.064-1.579 0.035s-2.135 0.447-2.978 0.451c0 0 0 0-0.706 0.22-0.399 0.123-0.604-0.33-0.994-0.092-0.243 0.149-0.243 0.149-0.243 0.149-0.352 0.065-0.763 0.062-0.914-0.009 0 0 0 0-0.15-0.025-0.305-0.050-0.697-0.207-0.713 0.277 0 0.019-0.349 0.089-0.406 0.039-0.327-0.288-0.327-0.288-0.327-0.288-0.415 0.089-0.935 0.242-1.156 0.338s-0.928-0.14-1.080-0.067c-0.152 0.072-0.729 0.248-0.835 0.174-0.104-0.074-0.413-0.173-0.363 0.005s-0.706-0.020-0.96-0.009c0 0 0 0-0.237 0.012-0.716 0.036-0.716 0.036-0.716 0.036-0.788 0.023-1.679 0.261-1.981 0.53 0 0 0 0-0.331-0.326-0.376-0.372-0.568 0.091-0.858 0.076-0.33-0.017-0.669-0.038-0.927 0.201-0.037 0.034-0.037 0.034-0.037 0.034-0.117-0.014-0.316-0.12-0.443-0.233s-0.937 0.129-1.285 0.176c0 0 0 0-0.326 0.028-0.323 0.027-0.687-0.091-0.931 0.199-0.029 0.034-0.221 0.033-0.238 0.007-0.354-0.562-0.354-0.562-0.354-0.562-0.544 0.214-1.136 0.492-1.317 0.618s-1.193-0.014-1.696 0.033c0 0 0 0-0.223 0.163-0.366 0.271-0.49-0.114-0.726-0.042-0.26 0.079-0.674 0.262-0.765 0.189-0.338-0.269-0.566 0.065-0.842 0.027-0.296-0.041-0.536 0.073-0.81 0.173-0.23 0.084-0.23 0.084-0.23 0.084-0.385-0.044-1.166-0.044-1.733 0.001-0.568 0.043-2.22 0.207-2.409 0.266s-0.654 0.071-0.809 0.142-0.725-0.052-0.897-0.062c-0.172-0.009-0.909 0.222-1.248 0.48 0 0 0 0-0.351-0.441-0.016-0.019-0.016-0.019-0.016-0.019-0.271 0.108-0.978 0.28-1.57 0.383s-2.373 0.313-2.61 0.391c-0.238 0.077-0.716 0.037-0.876 0.046-0.16 0.008-0.841 0.088-1.19 0.159 0 0 0 0-0.236 0.154-0.335 0.218-0.553 0.466-1.037 0.141-0.179-0.121-0.179-0.121-0.179-0.121-0.41 0.059-0.986 0.266-1.28 0.46 0 0 0 0-0.158 0.218-0.313 0.432-0.313 0.432-0.313 0.432-0.511-0.039-1.097-0.085-1.304-0.102-0.206-0.017-0.85-0.035-0.872 0.080s-0.351 0.437-0.683 0.438c-0.332 0.002-0.89 0.656-0.671 0.564s0.755-0.256 0.81-0.207c0.055 0.048 0.196 0.355 0.058 0.456 0 0 0 0-0.144 0.011-0.493 0.035-0.416 0.307-0.443 0.575-0.022 0.225 0.364 0.397 0.035 0.681-0.181 0.158-0.181 0.158-0.181 0.158-0.013 0.33 0.013 0.856 0.059 1.169 0.047 0.313 1.039 0.368 1.216 0.388s0.912 0.021 1.246 0.040c0.335 0.019 1.477-0.196 1.784-0.162s1.378-0.252 1.668-0.234c0.288 0.017 0.965-0.089 1.182 0.006s1.13-0.312 1.722-0.359c0.592-0.047 2.641-0.202 3.236-0.261s2.312-0.421 2.527-0.5c0 0 0 0 0.181 0.019 1.312 0.132 1.312 0.132 1.312 0.132 1.41-0.199 2.955-0.428 3.431-0.509 0 0 0 0 0.439-0.045 0.403-0.041 0.794 0.004 1.194-0.192 0.252-0.122 0.252-0.122 0.252-0.122 0.417 0.051 0.974 0.119 1.239 0.152s1.204-0.199 1.478-0.166c0.272 0.032 1.262-0.264 1.647-0.3s1.694 0.033 2.043 0.082c0 0 0 0 0.11-0.102 0.246-0.233 0.457-0.003 0.672-0.059 0.228-0.059 0.465-0.11 0.703-0.127 0.297-0.022 0.604 0.021 0.897-0.014 0.229-0.028 0.521-0.241 0.652-0.181 0.518 0.239 0.979-0.101 1.471-0.028 0.29 0.044 0.6 0.027 0.897 0.003 0.255-0.020 0.255-0.020 0.255-0.020 0.264-0.053 0.649-0.159 0.859-0.238 0 0 0 0 0.24 0.038 0.261 0.042 0.573 0.095 0.832-0.134 0.063-0.057 0.063-0.057 0.063-0.057 0.298 0.105 0.939 0.217 1.424 0.248s1.661-0.451 1.706-0.452c0.045-0.001 0.711-0.033 1.374-0.065s2.694-0.202 3.043-0.255c0.349-0.053 1.481-0.238 1.74-0.288 0 0 0 0 0.24-0.022 0.399-0.036 0.774 0.161 1.207 0.011 0.366-0.125 0.83 0.113 1.212-0.144 0.376-0.254 0.376-0.254 0.376-0.254 0.506 0.016 1.225-0.006 1.597-0.049s1.926-0.047 2.577-0.098c0.651-0.052 2.522-0.187 2.709-0.158s0.754-0.077 0.919-0.132c0.167-0.055 1.026 0.176 1.566 0.214s2.108-0.417 2.38-0.436c0 0 0 0 0.252 0 2.226-0.002 2.226-0.002 2.226-0.002 2.449 0.004 4.794-0.051 5.211-0.121 0 0 0 0 0.31 0.308 0.070 0.070 0.345 0.059 0.488 0.011 0.208-0.068 0.361-0.363 0.624-0.12 0.294 0.271 0.294 0.271 0.294 0.271 0.28 0.329 0.466 0.824 0.414 1.1 0 0 0 0 0.226 0.233 0.044 0.045-0.082 0.187-0.099 0.288-0.042 0.248-0.042 0.248-0.042 0.248 0.201-0.052 0.438-0.037 0.529 0.035 0 0 0 0-0.005 0.059-0.013 0.134-0.013 0.134-0.013 0.134-0.055 0.142 0.022 0.5 0.174 0.796s0.966 0.997 1.35 0.962c0 0 0 0 0.016 0.342 0.016 0.322 0.193 0.501 0.429 0.701 0.074 0.063 0.074 0.063 0.074 0.063 0.013 0.111-0.013 0.436-0.065 0.72 0 0 0 0 0.372 0.153 0.101 0.042 0.101 0.042 0.101 0.042 0.072 0.102 0.301 0.373 0.509 0.603s1.188 0.508 1.319 0.532c0 0 0 0 0.096 0.052 0.104 0.055 0.104 0.055 0.104 0.055 0.083 0.084 0.245 0.305 0.358 0.489s0.519 0.527 0.797 0.319c0 0 0 0 0.057 0.507 0.024 0.21 0.024 0.21 0.024 0.21 0.155 0.177 0.392 0.3 0.527 0.273 0.136-0.026 0.811 0.149 1.293 0.316s1.973 0.737 2.293 0.823c0.32 0.086 1.58 0.254 2.114 0.299s2.407 0.428 3.034 0.498c0 0 0 0 0.573-0.126 0.354-0.078 0.354-0.078 0.354-0.078 0.394 0.042 1.102 0.076 1.573 0.076 0 0 0 0 0.428 0s0.856 0.001 1.284 0c0.083-0.001 0.19 0.014 0.244-0.020 0.254-0.161 0.386-0.491 0.872-0.215 0.157 0.089 0.538-0.186 0.896-0.205 0.628-0.033 1.14-0.496 1.836-0.421 0.027 0.003 0.070-0.107 0.105-0.165 0.085-0.145 0.214-0.284 0.248-0.437 0.074-0.346 0.074-0.346 0.074-0.346 0.287 0.074 0.457 0.032 0.378-0.092 0 0 0 0 0.076-0.117 0.112-0.172 0.258-0.331 0.389-0.495 0.001-0.001 0.304-0.663 0.304-0.665-0.032-0.183-0.032-0.183-0.032-0.183 0.070-0.193 0.247-0.621 0.392-0.949 0 0 0 0 0.126-0.307 0.114-0.274 0.283-0.539 0.347-0.821 0.12-0.523 0.21-1.053 0.255-1.584 0.027-0.297 0.027-0.297 0.027-0.297-0.069-0.332-0.2-0.693-0.29-0.801s-0.572-0.38-0.72-0.458c-0.148-0.080-0.577-0.478-0.625-0.705 0 0 0 0-0.13-0.175-0.152-0.204-0.626-0.122-0.634-0.508-0.005-0.196-0.005-0.196-0.005-0.196-0.238 0.078-0.542 0.115-0.675 0.083s-0.633-0.289-0.853-0.411c0 0 0 0-0.219-0.073s-0.219-0.073-0.219-0.073c-0.285-0.047-0.518-0.19-0.518-0.317s-0.153-0.538-0.34-0.538c-0.187 0-0.713-0.050-0.649-0.114s0.148-0.229 0.098-0.28c0 0 0 0-0.063-0.016-0.078-0.020-0.175-0.020-0.254-0.003-0.72 0.156-0.983-0.336-1.36-0.646-0.277-0.229-0.306-0.266-0.506 0.054-0.229 0.366-0.229 0.366-0.229 0.366-0.094-0.216-0.245-0.359-0.335-0.315s-0.408 0.011-0.365-0.063c0 0 0 0 0.056-0.054 0.31-0.3 0.31-0.3 0.31-0.3-0.287-0.128-1.024-0.457-1.638-0.728 0 0 0 0-0.565-0.238-0.174-0.073-0.382-0.177-0.554-0.155-0.443 0.056-0.809-0.123-1.169-0.242-0.27-0.088-0.27-0.088-0.27-0.088-0.25 0.030-0.515 0.015-0.591-0.034 0 0 0 0-0.054-0.054-0.070-0.068-0.127-0.212-0.189-0.211-0.628 0.005-1.161-0.254-1.733-0.375-0.532-0.113-0.532-0.113-0.532-0.113-0.626-0.070-1.504-0.191-1.951-0.269 0 0 0 0-0.345-0.126-0.293-0.105-0.427-0.229-0.741-0.017-0.211 0.142-0.211 0.142-0.211 0.142-0.309-0.149-0.672-0.187-0.807-0.085s-0.456-0.242-0.517-0.346c-0.062-0.103-0.611 0.012-0.895 0.024 0 0 0 0-0.115-0.256-0.027-0.060-0.027-0.060-0.027-0.060-0.104-0.067 0.060-0.151 0.364-0.185s1.132-0.181 1.386-0.033c0 0 0 0 0.282-0.187 0.248-0.163 0.522-0.318 0.815-0.412 0.259-0.083 0.259-0.083 0.259-0.083 0.321-0.018 0.768 0.049 0.994 0.15s1.639-0.276 2.739-0.275 4.181 0 4.407-0.102c0.226-0.102 0.878 0.307 1.047 0.371 0.168 0.064 1.082-0.158 1.532-0.15 0 0 0 0 0.406 0.089 0.453 0.1 0.453 0.1 0.453 0.1 0.504 0.038 1.276 0.15 1.715 0.25 0 0 0 0 0.379-0.16 0.176-0.075 0.176-0.075 0.176-0.075 0.134-0.177 0.27-0.084 0.306 0.205 0 0 0 0 0.468-0.121 0.444-0.114 0.444-0.114 0.444-0.114 0.474 0.087 1.297 0.152 1.83 0.143 0 0 0 0 0.444 0.289 0.153 0.1 0.153 0.1 0.153 0.1 0.386-0.106 1.186-0.164 1.78-0.13s2.068 0.464 2.099 0.392c0.032-0.073 0.213-0.152 0.353-0.064s0.646 0.265 0.942 0.45c0 0 0 0 0.089-0.065 0.409-0.295 0.779-0.105 1.171-0.036 0.048 0.009 0.048 0.009 0.048 0.009 0.068-0.065 0.456-0.046 0.861 0.046s1.831 0.32 2.234 0.403 1.668 0.187 1.917 0.032c0 0 0 0 0.212 0.368 0.085 0.15 0.475 0.217 0.742 0.257 0.29 0.043 0.598 0 0.896 0.014 0.112 0.007 0.265 0.046 0.321 0.113 0.252 0.307 0.626 0.351 1.006 0.292 0.447-0.069 0.447-0.069 0.447-0.069 0.402 0.16 1.415 0.416 2.251 0.567s3.732 0.832 4.624 1.027c0 0 0 0 0.818 0.152 0.589 0.109 1.202 0.148 1.658 0.533 0.073 0.062 0.305 0.109 0.321 0.090 0.246-0.316 0.495-0.050 0.694 0.016 0.557 0.187 1.065 0.415 1.716 0.438 0.479 0.017 0.479 0.017 0.479 0.017 0.493 0.289 1.178 0.569 1.522 0.625s1.453 0.481 1.763 0.627c0.311 0.145 1.39 0.411 1.661 0.496s2.025 0.694 3.353 1.139c0 0 0 0 1.205 0.408 0.146 0.049 0.328 0.077 0.424 0.165 0.315 0.288 0.315 0.288 0.315 0.288 0.452 0.143 0.967 0.343 1.147 0.445s0.948 0.238 1.137 0.33c0 0 0 0 0.142 0.117 0.242 0.198 0.461 0.381 0.866 0.339 0.169-0.017 0.37 0.1 0.542 0.177 0.245 0.112 0.458 0.308 0.716 0.355 1.054 0.193 1.054 0.193 1.054 0.193 0.928 0.543 2.047 1.117 2.487 1.276s1.668 0.793 1.847 0.905c0.179 0.111 0.908 0.271 1.109 0.349s1.028 0.409 1.387 0.633c0 0 0 0 0.328 0.196 0.090 0.053 0.239 0.094 0.341 0.073 0.367-0.073 0.367-0.073 0.367-0.073 0.306 0.159 1.324 0.599 2.265 0.977 0 0 0 0 0.946 0.15 0.036 0.007 0.063 0.044 0.099 0.058 0.568 0.23 0.568 0.23 0.568 0.23 0.65 0.22 1.419 0.532 1.709 0.692s1.699 0.405 2.28 0.569c0.581 0.162 2.309 0.99 2.756 1.131s2.268 0.633 3.042 0.807c0 0 0 0 0.577 0.304 0.488 0.257 0.488 0.257 0.488 0.257 0.556 0.063 1.209 0.202 1.451 0.311s1.542 0.403 2.216 0.567c0 0 0 0 0.569 0.196 0.508 0.176 1.050-0.064 1.542 0.281 0.317 0.222 0.93 0.153 1.403 0.241 0.938 0.172 1.87 0.362 2.803 0.547 0.076 0.015 0.076 0.015 0.076 0.015 0.079 0.032 0.882 0.119 1.784 0.192 0 0 0 0 0.819 0.082 0.523 0.052 1.041 0.141 1.563 0.204s1.098-0.149 1.568 0.206c0.047 0.035 0.184-0.021 0.249 0.009 0.412 0.192 0.726-0.471 1.245-0.047 0.215 0.176 0.215 0.176 0.215 0.176 0.561-0.063 1.345-0.272 1.741-0.466 0 0 0 0 0.427 0.195 0.386 0.177 0.386 0.177 0.386 0.177 0.399-0.144 1.085-0.239 1.524-0.212 0 0 0 0 0.392-0.224 0.2-0.115 0.583-0.030 0.881-0.018 0.291 0.012 0.291 0.012 0.291 0.012 0.092-0.183 0.392-0.342 0.667-0.352 0 0 0 0 0.223 0.020 0.176 0.015 0.363 0.204 0.526 0.019 0.29-0.332 0.706-0.278 1.117-0.349 0.611-0.104 1.186-0.348 1.777-0.533 0.148-0.047 0.148-0.047 0.148-0.047 0.149-0.050 0.236-0.164 0.195-0.253s-0.132-0.331-0.106-0.344c0.024-0.012 0.179 0.022 0.288 0.101s0.673 0.192 0.921 0.011c0 0 0 0 0.182-0.176 0.098-0.093 0.098-0.093 0.098-0.093 0.050-0.142 0.151-0.228 0.225-0.189s0.289-0.076 0.366-0.22c0.078-0.143 0.385-0.548 0.414-0.463 0.027 0.084 0.18 0.272 0.261 0.186s0.519-0.318 0.758-0.401c0 0 0 0 0.224-0.064 0.565-0.162 0.67-0.281 0.92-0.978 0.045-0.122 0.045-0.122 0.045-0.122 0.138-0.14 0.334-0.092 0.437 0.107 0 0 0 0 0.243-0.157 0.088-0.057 0.088-0.057 0.088-0.057 0.131-0.023 0.682 0.070 1.224 0.206 0 0 0 0 0.471 0.167 0.942 0.335 0.942 0.335 0.942 0.335 1.049 0.347 2.258 0.736 2.687 0.863s1.974 0.564 2.483 0.679c0.51 0.116 2.203 0.498 2.636 0.652s1.844 0.289 2.044 0.389c0 0 0 0 0.176-0.009 0.631-0.031 0.631-0.031 0.631-0.031 0.656 0.132 1.714 0.324 2.353 0.426s2.629 0.346 2.974 0.463c0 0 0 0 0.29-0.032 0.329-0.036 0.329-0.036 0.329-0.036 0.354 0.048 0.796 0.128 0.982 0.177s1.799 0.248 3.163 0.458c0 0 0 0 1.265-0.165 0.363-0.047 0.363-0.047 0.363-0.047 0.389 0.029 1.019 0.137 1.399 0.237 0 0 0 0 0.361 0.018 0.426 0.021 0.855 0.005 1.283 0.005 0.385 0 0.385 0 0.385 0 0.422 0.007 1.226-0.072 1.785-0.176 0 0 0 0 0.584 0.139 0.456 0.108 0.456 0.108 0.456 0.108 0.607-0.143 1.306-0.314 1.552-0.381s1.054 0.003 1.465-0.139c0 0 0 0 0.298 0.341 0.032 0.037 0.032 0.037 0.032 0.037 0.081 0.015 0.439 0.004 0.799-0.026s1.32-0.575 1.589-0.638c0 0 0 0 0.238-0.073 0.363-0.113 0.363-0.113 0.363-0.113 0.042 0.253 0.189 0.431 0.327 0.394s0.757-0.319 1.128-0.492c0 0 0 0 0.118-0.233 0.252-0.501 0.252-0.501 0.252-0.501 0.266 0.25 0.864 0.433 1.331 0.407 0 0 0 0 0.211-0.397 0.037-0.069 0.223-0.151 0.303-0.131 0.644 0.167 0.82-0.384 1.255-0.534 0.091-0.030 0.196-0.233 0.158-0.277-0.124-0.141-0.183-0.221 0.092-0.24 0.127-0.009 0.268 0.025 0.382-0.009 0.148-0.043 0.266-0.173 0.413-0.195 0.321-0.047 0.339-0.241 0.189-0.355-0.357-0.27-0.357-0.27-0.357-0.27 0.279-0.101 0.649-0.272 0.824-0.383 0.176-0.109 0.867-0.261 0.999-0.523 0 0 0 0 0.121-0.238 0.15-0.297-0.107-0.512-0.256-0.738-0.024-0.035-0.024-0.035-0.024-0.035-0.238 0.055-0.627 0.454-0.865 0.886 0 0 0 0-0.244 0.381-0.019 0.030-0.019 0.030-0.019 0.030z"></path>
</symbol>

<symbol id="icon-instagram" viewBox="0 0 24 28">
<path d="M16 14c0-2.203-1.797-4-4-4s-4 1.797-4 4 1.797 4 4 4 4-1.797 4-4zM18.156 14c0 3.406-2.75 6.156-6.156 6.156s-6.156-2.75-6.156-6.156 2.75-6.156 6.156-6.156 6.156 2.75 6.156 6.156zM19.844 7.594c0 0.797-0.641 1.437-1.437 1.437s-1.437-0.641-1.437-1.437 0.641-1.437 1.437-1.437 1.437 0.641 1.437 1.437zM12 4.156c-1.75 0-5.5-0.141-7.078 0.484-0.547 0.219-0.953 0.484-1.375 0.906s-0.688 0.828-0.906 1.375c-0.625 1.578-0.484 5.328-0.484 7.078s-0.141 5.5 0.484 7.078c0.219 0.547 0.484 0.953 0.906 1.375s0.828 0.688 1.375 0.906c1.578 0.625 5.328 0.484 7.078 0.484s5.5 0.141 7.078-0.484c0.547-0.219 0.953-0.484 1.375-0.906s0.688-0.828 0.906-1.375c0.625-1.578 0.484-5.328 0.484-7.078s0.141-5.5-0.484-7.078c-0.219-0.547-0.484-0.953-0.906-1.375s-0.828-0.688-1.375-0.906c-1.578-0.625-5.328-0.484-7.078-0.484zM24 14c0 1.656 0.016 3.297-0.078 4.953-0.094 1.922-0.531 3.625-1.937 5.031s-3.109 1.844-5.031 1.937c-1.656 0.094-3.297 0.078-4.953 0.078s-3.297 0.016-4.953-0.078c-1.922-0.094-3.625-0.531-5.031-1.937s-1.844-3.109-1.937-5.031c-0.094-1.656-0.078-3.297-0.078-4.953s-0.016-3.297 0.078-4.953c0.094-1.922 0.531-3.625 1.937-5.031s3.109-1.844 5.031-1.937c1.656-0.094 3.297-0.078 4.953-0.078s3.297-0.016 4.953 0.078c1.922 0.094 3.625 0.531 5.031 1.937s1.844 3.109 1.937 5.031c0.094 1.656 0.078 3.297 0.078 4.953z"></path>
</symbol>

<symbol id="icon-phone" viewBox="0 0 32 32">
<path d="M22 20c-2 2-2 4-4 4s-4-2-6-4-4-4-4-6 2-2 4-4-4-8-6-8-6 6-6 6c0 4 4.109 12.109 8 16s12 8 16 8c0 0 6-4 6-6s-6-8-8-6z"></path>
</symbol>

<symbol id="icon-facebook" viewBox="0 0 32 32">
<path d="M19 6h5v-6h-5c-3.86 0-7 3.14-7 7v3h-4v6h4v16h6v-16h5l1-6h-6v-3c0-0.542 0.458-1 1-1z"></path>
</symbol>

<symbol id="icon-close" viewBox="0 0 32 32">
<path d="M32 3.223l-3.223-3.223-12.777 12.777-12.777-12.777-3.223 3.223 12.777 12.777-12.777 12.777 3.223 3.223 12.777-12.777 12.777 12.777 3.223-3.223-12.777-12.777 12.777-12.777z"></path>
</symbol>


</defs>
</svg>
